# xmcd
#
# Track frame offsets:
#	150
#	17815
#	35354
#	57505
#	72031
#	87570
#	103418
#	127442
#	141786
#	156241
#	169472
#	183841
#	200336
#	215038
#	231047
#
# Disc length: 3268 seconds
#
# Revision: 1
# Processed by: cddbd v1.5.2PL0 Copyright (c) Steve Scherf et al.
# Submitted via: audiograbber 1.83.01
#
DISCID=e60cc20f
DTITLE=Various Artist - Now! Country 11
DYEAR=2016
DGENRE=Country
TTITLE0=Blake Shelton - Sangria
TTITLE1=Sam Hunt - Break Up In A Small Town
TTITLE2=Chris Stapleton - Tennessee Whiskey
TTITLE3=Zac Brown Band - Beautiful Drug
TTITLE4=Jon Pardi - Head Over Boots
TTITLE5=Keith Urban - Break On Me
TTITLE6=Eric Church - Mr. Misunderstood
TTITLE7=Chris Lane - Fix
TTITLE8=Jess Moskaluke - Take Me Home
TTITLE9=Dean Brody - Love Would Be Enough
TTITLE10=David Nail - Night's On Fire
TTITLE11=Bobby Wills - Wont' You Be Mine
TTITLE12=Chad Brownlee - Hearts On Fire
TTITLE13=Madeline Merlo - Whatcha Wanna Do About It
TTITLE14=Tim Hicks - Stompin Grounds
EXTD=
EXTT0=
EXTT1=
EXTT2=
EXTT3=
EXTT4=
EXTT5=
EXTT6=
EXTT7=
EXTT8=
EXTT9=
EXTT10=
EXTT11=
EXTT12=
EXTT13=
EXTT14=
PLAYORDER=
